<?xml version="1.0" encoding="UTF-8"?>
<svg xmlns="http://www.w3.org/2000/svg" viewBox="0 0 2565.98 2565.98">
  <defs>
    <style>
      .cls-1 {
        stroke-linecap: square;
        stroke-linejoin: round;
        stroke-width: 151px;
      }

      .cls-1, .cls-2 {
        stroke: #fff;
      }

      .cls-1, .cls-3 {
        fill: none;
      }

      .cls-2 {
        fill: #231f20;
        stroke-width: 61px;
      }

      .cls-2, .cls-3 {
        stroke-miterlimit: 10;
      }

      .cls-3 {
        stroke: #231f20;
        stroke-width: 60px;
      }
    </style>
  </defs>
  <g id="Layer_1" data-name="Layer 1">
    <g>
      <path class="cls-1" d="M1677.69,1314.51c2.73,19.74,4.14,39.89,4.14,60.38,0,241.14-195.49,436.63-436.63,436.63s-436.63-195.49-436.63-436.63,195.49-436.63,436.63-436.63c22.23,0,44.08,1.66,65.42,4.87"/>
      <path class="cls-3" d="M1677.69,1314.51c2.73,19.74,4.14,39.89,4.14,60.38,0,241.14-195.49,436.63-436.63,436.63s-436.63-195.49-436.63-436.63,195.49-436.63,436.63-436.63c22.23,0,44.08,1.66,65.42,4.87"/>
    </g>
  </g>
  <g id="Layer_3" data-name="Layer 3">
    <path class="cls-2" d="M1223.92,1348.55c-14.59,27.95,15.29,58.08,43.37,43.73,94.81-48.5,216.85-97.19,363.4-125.46,83.36-16.08,160.42-22.8,228.61-24.24,28.45-.6,42.27-35.02,22.15-55.14l-452.84-452.84c-20.23-20.23-54.79-6.12-55.14,22.49-.83,66.76-6.84,142.25-22.11,223.95-27.86,149.12-77.9,272.61-127.44,367.51Z"/>
  </g>
</svg>